# xmcd
# Copyright (C) 1995-1998 Ti Kan
#
# Track frame offsets:
#       150
#       10470
#       22497
#       33930
#       45535
#       56745
#       69045
#       80557
#       92187
#       105240
#       118247
#       130802
#       142930
#       156782
#       171242
#       184332
#       199335
#       213397
#
# Disc length: 3009 seconds
#
# Revision: 0
# Processed by: cddbd v1.5.2PL0 Copyright (c) Steve Scherf et al.
# Submitted via: CD-Import v1.0
#
DISCID=000bbf12
DTITLE=Edwin Starr - Early Classics
DYEAR=1996
DGENRE=
TTITLE0=Stop Her On Sight
TTITLE1=Agent Double-O-Soul
TTITLE2=Headline News
TTITLE3=My Weakness Is You
TTITLE4=If My Heart Could Tell The Story
TTITLE5=Way Over There
TTITLE6=You Beat Me To The Punch
TTITLE7=Oh How Happy
TTITLE8=Love Is My Destination
TTITLE9=Time Is Passin' By
TTITLE10=Mighty Good Lovin'
TTITLE11=I Am The Man For You Baby
TTITLE12=I'm So Glad You Belong To Me
TTITLE13=I Am Your Man
TTITLE14=Backyard Lovin' Man
TTITLE15=Twenty-Five Miles
TTITLE16=She Should Have Been Home
TTITLE17=We'll Find A Way
EXTD=
EXTT0=
EXTT1=
EXTT2=
EXTT3=
EXTT4=
EXTT5=
EXTT6=
EXTT7=
EXTT8=
EXTT9=
EXTT10=
EXTT11=
EXTT12=
EXTT13=
EXTT14=
EXTT15=
EXTT16=
EXTT17=
PLAYORDER=
